<svg height="336" viewBox="0 0 512 336" width="512" xmlns="http://www.w3.org/2000/svg"><g fill="none"><path d="m503.172.276h-494.344a8.829 8.829 0 0 0 -8.828 8.828v317.792a8.829 8.829 0 0 0 8.828 8.828h494.345a8.829 8.829 0 0 0 8.828-8.828v-317.792a8.83 8.83 0 0 0 -8.829-8.828z" fill="#464655"/><path d="m255.999 17.931 11.195 58.482 32.721-49.746-12.037 58.314 49.268-33.438-33.437 49.269 58.314-12.038-49.747 32.722 58.482 11.194-58.482 11.194 49.747 32.722-58.314-12.038 33.437 49.268-49.268-33.437 12.037 58.314-32.721-49.746-11.195 58.481-11.193-58.481-32.723 49.746 12.039-58.314-49.269 33.437 33.438-49.268-58.314 12.038 49.746-32.722-58.482-11.194 58.482-11.194-49.746-32.722 58.314 12.038-33.438-49.269 49.269 33.438-12.039-58.314 32.723 49.746z" fill="#ffe15a"/><g fill="#ff4b55"><path d="m0 9.104v317.792a8.829 8.829 0 0 0 8.828 8.828h247.172l-253.702-332.435c-1.388 1.559-2.298 3.563-2.298 5.815z"/><path d="m255.999 335.724h247.172a8.829 8.829 0 0 0 8.828-8.828v-317.792c0-2.252-.91-4.256-2.298-5.816z"/></g><path d="m154.947 203.31h202.105l53.894-70.62h-309.894z" fill="#4173cd"/><path d="m154.947 203.31 101.052 132.414 101.053-132.414z" fill="#f5f5f5"/></g></svg>