<svg height="336" viewBox="0 0 512 336" width="512" xmlns="http://www.w3.org/2000/svg"><g fill="none"><path d="m503.172 335.724h-494.344a8.829 8.829 0 0 1 -8.828-8.828v-317.792a8.829 8.829 0 0 1 8.828-8.828h494.345a8.829 8.829 0 0 1 8.828 8.828v317.792a8.83 8.83 0 0 1 -8.829 8.828z" fill="#4173cd"/><path d="m0 229.793h511.999v17.655h-511.999zm0 35.31h511.999v17.655h-511.999z" fill="#ffe15a"/><path d="m65.232 87.942-32.848-11.217 32.848-11.216 11.217-32.844 11.216 32.844 32.848 11.216-32.848 11.217-11.216 32.845z" fill="#ff4b55"/><path d="m76.449 38.567 9.714 28.445 28.445 9.714-28.445 9.714-9.714 28.445-9.714-28.445-28.445-9.714 28.445-9.714zm0-11.808-3.612 10.574-9.108 26.673-26.672 9.108-10.574 3.612 10.574 3.61 26.672 9.108 9.108 26.672 3.612 10.574 3.612-10.574 9.108-26.672 26.672-9.108 10.574-3.61-10.574-3.61-26.672-9.108-9.108-26.672z" fill="#f5f5f5"/></g></svg>