<svg height="336" viewBox="0 0 512 336" width="512" xmlns="http://www.w3.org/2000/svg"><g fill="none"><path d="m170.667 335.724h-161.839a8.829 8.829 0 0 1 -8.828-8.828v-317.792a8.829 8.829 0 0 1 8.828-8.828h161.839z" fill="#41479b"/><path d="m170.67.276h170.67v335.448h-170.67z" fill="#ffe15a"/><path d="m503.172 335.724h-161.839v-335.448h161.839a8.829 8.829 0 0 1 8.828 8.828v317.792a8.828 8.828 0 0 1 -8.828 8.828z" fill="#41479b"/><path d="m326.62 119.256s-24.564 0-42.987 18.423h12.281s-11.898 21.493-18.039 58.339l-12.665-2.068v-56.454l12.281 4.021-21.492-52.965-21.493 52.965 12.281-4.095v56.527l-12.665 2.068c-6.141-36.845-18.039-58.339-18.039-58.339h12.281c-18.422-18.422-42.986-18.422-42.986-18.422 30.704 36.845 30.704 98.255 30.704 98.255l30.704-5.117v41.963h18.423v-41.963l30.704 5.117c.002.001.002-61.408 30.707-98.255z" fill="#464655"/></g></svg>