<svg height="336" viewBox="0 0 512 336" width="512" xmlns="http://www.w3.org/2000/svg"><g fill="none"><path d="m211.862 335.723h-203.034a8.829 8.829 0 0 1 -8.828-8.828v-317.792a8.829 8.829 0 0 1 8.828-8.828h203.034z" fill="#f5f5f5"/><path d="m141.241.275 70.621 20.966-70.621 20.965 70.621 20.965-70.621 20.965 70.621 20.965-70.621 20.965 70.621 20.965-70.621 20.965 70.621 20.965-70.621 20.965 70.621 20.965-70.621 20.965 70.621 20.965-70.621 20.965 70.621 20.965-70.621 20.965h361.93a8.829 8.829 0 0 0 8.828-8.828v-317.785a8.829 8.829 0 0 0 -8.828-8.828h-361.93z" fill="#ff4b55"/></g></svg>