<svg height="336" viewBox="0 0 512 336" width="512" xmlns="http://www.w3.org/2000/svg"><g fill="none"><path d="m503.172.225h-494.344a8.829 8.829 0 0 0 -8.828 8.828v317.792a8.829 8.829 0 0 0 8.828 8.828h494.345a8.829 8.829 0 0 0 8.828-8.828v-317.792a8.83 8.83 0 0 0 -8.829-8.828z" fill="#73af00"/><path d="m40.266.225 215.733 141.343 215.734-141.343zm431.467 335.55-215.734-141.343-215.733 141.343z" fill="#ff4b55"/><path d="m512 9.053a8.829 8.829 0 0 0 -8.828-8.828h-31.438l-164.038 107.473c-13.9-11.937-31.936-19.196-51.696-19.196s-37.796 7.258-51.696 19.196l-164.038-107.473h-31.438a8.829 8.829 0 0 0 -8.828 8.828v17.554l180.058 117.968a79.426 79.426 0 0 0 -3.507 23.374 79.426 79.426 0 0 0 3.507 23.374l-180.058 117.969v17.554a8.829 8.829 0 0 0 8.828 8.828h31.438l164.037-107.472c13.9 11.937 31.936 19.197 51.696 19.197s37.796-7.258 51.696-19.197l164.037 107.472h31.438a8.829 8.829 0 0 0 8.828-8.828v-17.554l-180.057-117.968a79.426 79.426 0 0 0 3.507-23.374 79.426 79.426 0 0 0 -3.507-23.374l180.058-117.968v-17.555z" fill="#f5f5f5"/><path d="m250.28 142.545-11.97.31 6.25-10.216-6.25-10.215 11.97.31 5.719-10.525 5.721 10.525 11.97-.31-6.251 10.215 6.251 10.216-11.97-.31-5.721 10.525z" fill="#ff4b55"/><path d="m255.999 114.984 4.943 9.092 10.346-.265-5.402 8.828 5.402 8.828-10.346-.265-4.943 9.092-4.943-9.092-10.346.265 5.402-8.828-5.402-8.828 10.346.265zm0-5.544-2.327 4.279-4.169 7.669-8.726-.224-4.869-.125 2.542 4.156 4.557 7.445-4.557 7.445-2.542 4.156 4.869-.125 8.726-.224 4.169 7.669 2.327 4.279 2.327-4.279 4.169-7.669 8.726.224 4.87.125-2.542-4.156-4.557-7.445 4.557-7.445 2.542-4.156-4.87.125-8.726.224-4.169-7.669z" fill="#73af00"/><path d="m217.406 201.054-11.97.311 6.25-10.216-6.25-10.215 11.97.31 5.72-10.526 5.72 10.526 11.969-.31-6.25 10.215 6.25 10.216-11.969-.311-5.72 10.525z" fill="#ff4b55"/><path d="m223.126 173.494 4.943 9.092 10.346-.265-5.402 8.828 5.402 8.828-10.346-.265-4.943 9.092-4.943-9.092-10.346.265 5.402-8.828-5.402-8.828 10.346.265zm0-5.545-2.327 4.279-4.169 7.669-8.726-.224-4.87-.125 2.542 4.156 4.557 7.445-4.557 7.445-2.542 4.156 4.87-.125 8.726-.224 4.169 7.669 2.327 4.279 2.327-4.279 4.169-7.669 8.726.224 4.87.125-2.542-4.156-4.557-7.445 4.557-7.445 2.542-4.156-4.87.125-8.726.224-4.169-7.669z" fill="#73af00"/><path d="m283.154 201.054-11.97.311 6.25-10.216-6.25-10.215 11.97.31 5.719-10.526 5.721 10.526 11.97-.31-6.25 10.215 6.25 10.216-11.97-.311-5.721 10.525z" fill="#ff4b55"/><path d="m288.873 173.494 4.943 9.092 10.346-.265-5.402 8.828 5.402 8.828-10.346-.265-4.943 9.092-4.943-9.092-10.346.265 5.402-8.828-5.402-8.828 10.346.265zm0-5.545-2.327 4.279-4.169 7.669-8.726-.224-4.87-.125 2.542 4.156 4.557 7.445-4.557 7.445-2.542 4.156 4.87-.125 8.726-.224 4.169 7.669 2.327 4.279 2.327-4.279 4.169-7.669 8.726.224 4.87.125-2.542-4.156-4.557-7.445 4.557-7.445 2.542-4.156-4.87.125-8.726.224-4.169-7.669z" fill="#73af00"/></g></svg>