<svg height="336" viewBox="0 0 512 336" width="512" xmlns="http://www.w3.org/2000/svg"><g fill="none"><path d="m503.172 335.724h-494.344a8.829 8.829 0 0 1 -8.828-8.828v-75.034h512v75.034a8.828 8.828 0 0 1 -8.828 8.828z" fill="#ffe15a"/><path d="m0 168h511.999v83.862h-511.999z" fill="#73af00"/><path d="m0 84.138h511.999v83.862h-511.999z" fill="#f5f5f5"/><path d="m512.001 84.138h-512.001v-75.034a8.829 8.829 0 0 1 8.828-8.828h494.345a8.829 8.829 0 0 1 8.828 8.828z" fill="#41479b"/><path d="m214.068.276h83.862v335.448h-83.862z" fill="#ff4b55"/><path d="m76.5 11.574 7.366 22.087 23.282.181c1.804.014 2.551 2.316 1.1 3.388l-18.73 13.83 7.022 22.198c.544 1.719-1.414 3.143-2.881 2.093l-18.941-13.538-18.941 13.538c-1.468 1.049-3.425-.374-2.881-2.093l7.022-22.198-18.727-13.83c-1.451-1.071-.703-3.373 1.1-3.388l23.282-.181 7.366-22.087c.57-1.711 2.99-1.711 3.561 0z" fill="#ffe15a"/></g></svg>