<svg height="336" viewBox="0 0 512 336" width="512" xmlns="http://www.w3.org/2000/svg"><g fill="none"><path d="m8.828 335.724h494.345a8.829 8.829 0 0 0 8.828-8.828v-317.793a8.829 8.829 0 0 0 -8.828-8.828h-494.345a8.83 8.83 0 0 0 -8.828 8.828v317.793a8.828 8.828 0 0 0 8.828 8.828z" fill="#c8414b"/><path d="m0 70.897h512v194.207h-512z" fill="#ffd250"/><path d="m216.276 168 7.485-33.681c.69-3.102-1.671-6.044-4.849-6.044h-5.272c-3.177 0-5.537 2.942-4.849 6.044z" fill="#c8414b"/><path d="m207.448 150.345h17.655v75.034h-17.655z" fill="#f5f5f5"/><path d="m203.034 141.517h26.483v8.828h-26.483z" fill="#fab446"/><path d="m185.379 168h44.138v8.828h-44.138zm44.138 35.31-26.483-8.827v-8.828l26.483 8.828zm-145.655-35.31 7.485-33.681c.69-3.102-1.671-6.044-4.849-6.044h-5.272c-3.177 0-5.537 2.942-4.849 6.044z" fill="#c8414b"/><path d="m114.759 141.517a8.829 8.829 0 0 0 -8.828 8.828v57.379c0 10.725 10.01 30.897 44.138 30.897s44.138-20.171 44.138-30.897v-57.379a8.829 8.829 0 0 0 -8.828-8.828z" fill="#f5f5f5"/><path d="m150.069 185.655h-44.138v-35.31a8.829 8.829 0 0 1 8.828-8.828h35.31zm0 0h44.138v22.069c0 12.189-9.88 22.069-22.069 22.069s-22.069-9.88-22.069-22.069z" fill="#c8414b"/><path d="m105.931 185.655h44.138v22.069c0 12.189-9.88 22.069-22.069 22.069s-22.069-9.88-22.069-22.069z" fill="#fab446"/><path d="m141.241 225.28v-39.625h-8.828v43.693c3.284-.666 6.251-2.12 8.828-4.068zm-17.655 4.068v-43.693h-8.828v39.625c2.578 1.948 5.545 3.402 8.828 4.068z" fill="#c8414b"/><path d="m114.759 168h26.483v8.828h-26.483z" fill="#ffb441"/><g fill="#fab446"><path d="m114.759 150.345h26.483v8.828h-26.483z"/><path d="m119.172 155.586h17.655v15.992h-17.655z"/></g><path d="m75.034 150.345h17.655v75.034h-17.655z" fill="#f5f5f5"/><path d="m70.621 220.966h26.483v8.828h-26.483zm0-79.449h26.483v8.828h-26.483z" fill="#fab446"/><path d="m66.207 229.793h35.31v8.828h-35.31z" fill="#5064aa"/><path d="m207.448 220.966h26.483v8.828h-26.483z" fill="#fab446"/><path d="m198.621 229.793h35.31v8.828h-35.31z" fill="#5064aa"/><path d="m123.586 132.69h52.966v8.828h-52.966z" fill="#fab446"/><path d="m145.655 106.207h8.828v26.483h-8.828z" fill="#ffb441"/><g fill="#f5f5f5"><path d="m141.241 119.448c-7.302 0-13.241-5.94-13.241-13.241 0-7.302 5.94-13.241 13.241-13.241 7.302 0 13.241 5.94 13.241 13.241.001 7.301-5.939 13.241-13.241 13.241zm0-17.655a4.417 4.417 0 0 0 -4.414 4.414 4.417 4.417 0 0 0 4.414 4.414 4.416 4.416 0 0 0 4.414-4.414 4.417 4.417 0 0 0 -4.414-4.414z"/><path d="m158.897 119.448c-7.302 0-13.241-5.94-13.241-13.241 0-7.302 5.94-13.241 13.241-13.241 7.302 0 13.241 5.94 13.241 13.241s-5.94 13.241-13.241 13.241zm0-17.655a4.417 4.417 0 0 0 -4.414 4.414 4.417 4.417 0 0 0 4.414 4.414 4.417 4.417 0 0 0 4.414-4.414 4.418 4.418 0 0 0 -4.414-4.414z"/><path d="m176.552 128.276c-7.302 0-13.241-5.94-13.241-13.241 0-7.302 5.94-13.241 13.241-13.241 7.302 0 13.241 5.94 13.241 13.241s-5.94 13.241-13.241 13.241zm0-17.655a4.417 4.417 0 0 0 -4.414 4.414 4.417 4.417 0 0 0 4.414 4.414 4.417 4.417 0 0 0 4.414-4.414 4.417 4.417 0 0 0 -4.414-4.414zm-52.966 17.655c-7.302 0-13.241-5.94-13.241-13.241 0-7.302 5.94-13.241 13.241-13.241 7.302 0 13.241 5.94 13.241 13.241.001 7.301-5.939 13.241-13.241 13.241zm0-17.655a4.417 4.417 0 0 0 -4.414 4.414 4.417 4.417 0 0 0 4.414 4.414 4.417 4.417 0 0 0 4.414-4.415 4.416 4.416 0 0 0 -4.414-4.413z"/></g><path d="m176.552 203.31v4.414a4.419 4.419 0 0 1 -4.414 4.414 4.419 4.419 0 0 1 -4.414-4.414v-4.414zm8.827-8.827h-26.483v13.241c0 7.302 5.94 13.241 13.241 13.241 7.302 0 13.241-5.94 13.241-13.241v-13.241z" fill="#fab446"/><path d="m172.138 176.828a8.829 8.829 0 0 1 -8.828-8.828v-8.828a8.829 8.829 0 0 1 17.656 0v8.828a8.829 8.829 0 0 1 -8.828 8.828z" fill="#ffa0d2"/><circle cx="150.069" cy="185.655" fill="#5064aa" r="13.241"/><path d="m145.655 88.552h8.828v26.483h-8.828z" fill="#fab446"/><path d="m123.586 132.69-8.828-8.828 5.171-5.171a42.625 42.625 0 0 1 60.28 0l5.171 5.171-8.828 8.828z" fill="#c8414b"/><g fill="#ffd250"><circle cx="150.069" cy="123.862" r="4.414"/><circle cx="132.414" cy="123.862" r="4.414"/><circle cx="167.724" cy="123.862" r="4.414"/></g><path d="m70.621 168h44.138v8.828h-44.138zm0 35.31 26.482-8.827v-8.828l-26.482 8.828z" fill="#c8414b"/></g></svg>