<svg height="336" viewBox="0 0 512 336" width="512" xmlns="http://www.w3.org/2000/svg"><g fill="none"><path d="m503.172 335.724h-494.344a8.829 8.829 0 0 1 -8.828-8.828v-317.792a8.829 8.829 0 0 1 8.828-8.828h494.345a8.829 8.829 0 0 1 8.828 8.828v317.792a8.83 8.83 0 0 1 -8.829 8.828z" fill="#ff4b55"/><path d="m459.033 53.242v229.517h-406.068v-229.517z" fill="#ffe15a"/><path d="m52.965 53.242 203.034 114.758-203.034 114.758zm406.068 0-203.034 114.758 203.034 114.758z" fill="#73af00"/><circle cx="255.999" cy="168" fill="#ff4b55" r="35.31"/><path d="m258.231 142.129 5.523 16.558 17.454.136c2.26.018 3.197 2.901 1.379 4.244l-14.041 10.369 5.266 16.642c.682 2.155-1.771 3.937-3.611 2.623l-14.201-10.151-14.2 10.151c-1.838 1.314-4.291-.468-3.61-2.623l5.266-16.642-14.041-10.369c-1.818-1.343-.881-4.226 1.379-4.244l17.454-.136 5.523-16.558c.712-2.144 3.745-2.144 4.46 0zm-.913-130.136 3.263 9.783 10.313.079c1.335.01 1.889 1.715.814 2.507l-8.297 6.126 3.111 9.833c.403 1.273-1.047 2.326-2.133 1.549l-8.389-5.994-8.391 5.997c-1.086.777-2.536-.277-2.133-1.549l3.111-9.833-8.297-6.126c-1.074-.793-.521-2.497.814-2.507l10.313-.079 3.263-9.783c.423-1.27 2.215-1.27 2.638-.003zm116.138 0 3.263 9.783 10.313.079c1.335.01 1.889 1.715.814 2.507l-8.297 6.126 3.111 9.833c.403 1.273-1.047 2.326-2.133 1.549l-8.391-5.997-8.391 5.997c-1.086.777-2.536-.277-2.133-1.549l3.111-9.833-8.297-6.126c-1.074-.793-.521-2.497.814-2.507l10.313-.079 3.263-9.783c.426-1.267 2.217-1.267 2.64 0zm-232.276 0 3.263 9.783 10.313.079c1.335.01 1.889 1.715.814 2.507l-8.297 6.126 3.111 9.833c.403 1.273-1.047 2.326-2.133 1.549l-8.391-5.997-8.391 5.997c-1.086.777-2.536-.277-2.133-1.549l3.111-9.833-8.297-6.126c-1.074-.793-.521-2.497.814-2.507l10.313-.079 3.263-9.783c.426-1.267 2.218-1.267 2.64 0zm116.138 282 3.263 9.783 10.313.079c1.335.01 1.889 1.715.814 2.507l-8.297 6.126 3.111 9.833c.403 1.273-1.047 2.326-2.133 1.549l-8.389-5.995-8.391 5.997c-1.086.777-2.536-.277-2.133-1.549l3.111-9.833-8.297-6.126c-1.074-.793-.521-2.497.814-2.507l10.313-.079 3.263-9.783c.423-1.269 2.215-1.269 2.638-.002zm116.138 0 3.263 9.783 10.313.079c1.335.01 1.889 1.715.814 2.507l-8.297 6.126 3.111 9.833c.403 1.273-1.047 2.326-2.133 1.549l-8.391-5.997-8.391 5.997c-1.086.777-2.536-.277-2.133-1.549l3.111-9.833-8.297-6.126c-1.074-.793-.521-2.497.814-2.507l10.313-.079 3.263-9.783c.426-1.267 2.217-1.267 2.64 0zm-232.276 0 3.263 9.783 10.313.079c1.335.01 1.889 1.715.814 2.507l-8.297 6.126 3.111 9.833c.403 1.273-1.047 2.326-2.133 1.549l-8.391-5.997-8.391 5.997c-1.086.777-2.536-.277-2.133-1.549l3.111-9.833-8.297-6.126c-1.074-.793-.521-2.497.814-2.507l10.313-.079 3.263-9.783c.426-1.267 2.218-1.267 2.64 0zm-23.111-148.062h-22.069v22.069c0 12.189 9.88 22.069 22.069 22.069s22.069-9.88 22.069-22.069-9.881-22.069-22.069-22.069z" fill="#ffe15a"/><path d="m140.138 190.069-12.132-2.352-9.937-19.717 19.717 9.939z" fill="#ff4b55"/></g></svg>