<svg height="336" viewBox="0 0 512 336" width="512" xmlns="http://www.w3.org/2000/svg"><g fill="none"><path d="m503.172 335.724h-494.344a8.829 8.829 0 0 1 -8.828-8.828v-317.793a8.829 8.829 0 0 1 8.828-8.828h494.345a8.829 8.829 0 0 1 8.828 8.828v317.793a8.83 8.83 0 0 1 -8.829 8.828z" fill="#f5f5f5"/><g fill="#ff4b55"><path d="m512 141.517h-229.517v-141.241h-52.966v141.241h-229.517v52.966h229.517v141.241h52.966v-141.241h229.517z"/><path d="m150.069 58.833c-8.744.879-17.31 1.76-25.888 2.642.882-8.579 1.762-17.145 2.643-25.888a93.961 93.961 0 0 1 -24.129 0c.879 8.743 1.76 17.31 2.643 25.888-8.579-.881-17.146-1.762-25.888-2.642a93.954 93.954 0 0 1 0 24.128c8.744-.879 17.31-1.76 25.888-2.642-.882 8.579-1.763 17.145-2.643 25.888a93.961 93.961 0 0 1 24.129 0c-.879-8.743-1.761-17.31-2.643-25.888 8.579.881 17.145 1.762 25.888 2.642a94.044 94.044 0 0 1 0-24.128zm282.483 0c-8.744.879-17.31 1.76-25.888 2.642.882-8.579 1.762-17.145 2.643-25.888a93.961 93.961 0 0 1 -24.129 0c.879 8.743 1.76 17.31 2.643 25.888-8.579-.881-17.146-1.762-25.888-2.642a93.954 93.954 0 0 1 0 24.128c8.744-.879 17.31-1.76 25.888-2.642-.882 8.579-1.763 17.145-2.643 25.888a93.961 93.961 0 0 1 24.129 0c-.879-8.743-1.761-17.31-2.643-25.888 8.579.881 17.145 1.762 25.888 2.642a94.044 94.044 0 0 1 0-24.128zm-282.483 194.206c-8.744.879-17.31 1.76-25.888 2.642.882-8.579 1.762-17.145 2.643-25.888a93.961 93.961 0 0 1 -24.129 0c.879 8.743 1.76 17.31 2.643 25.888-8.579-.881-17.146-1.762-25.888-2.642a93.954 93.954 0 0 1 0 24.128c8.744-.879 17.31-1.76 25.888-2.642-.882 8.579-1.763 17.145-2.643 25.888a93.961 93.961 0 0 1 24.129 0c-.879-8.743-1.761-17.31-2.643-25.888 8.579.881 17.145 1.762 25.888 2.642a94.044 94.044 0 0 1 0-24.128zm282.483 0c-8.744.879-17.31 1.76-25.888 2.642.882-8.579 1.762-17.145 2.643-25.888a93.961 93.961 0 0 1 -24.129 0c.879 8.743 1.76 17.31 2.643 25.888-8.579-.881-17.146-1.762-25.888-2.642a93.954 93.954 0 0 1 0 24.128c8.744-.879 17.31-1.76 25.888-2.642-.882 8.579-1.763 17.145-2.643 25.888a93.961 93.961 0 0 1 24.129 0c-.879-8.743-1.761-17.31-2.643-25.888 8.579.881 17.145 1.762 25.888 2.642a94.044 94.044 0 0 1 0-24.128z"/></g></g></svg>