<svg height="336" viewBox="0 0 512 336" width="512" xmlns="http://www.w3.org/2000/svg"><g fill="none"><path d="m503.172 335.724h-494.344a8.829 8.829 0 0 1 -8.828-8.828v-317.792a8.829 8.829 0 0 1 8.828-8.828h494.345a8.829 8.829 0 0 1 8.828 8.828v317.792a8.83 8.83 0 0 1 -8.829 8.828z" fill="#f5f5f5"/><path d="m503.172 335.724h-494.344a8.829 8.829 0 0 1 -8.828-8.828v-105.931h512v105.931a8.828 8.828 0 0 1 -8.828 8.828zm-150.069-211.862v-17.655h-17.655v-44.138h8.827v-17.655h-52.965v17.655h8.827v44.138h-26.482v-61.793h8.827v-17.655h-52.965v17.655h8.827v61.793h-26.482v-44.138h8.827v-17.655h-52.965v17.655h8.827v44.138h-17.655v17.655h8.828v70.621h-8.828v17.655h194.207v-17.655h-8.828v-70.621z" fill="#ff4b55"/><path d="m273.655 203.31h-35.31v-35.31c0-9.751 7.904-17.655 17.655-17.655s17.655 7.904 17.655 17.655zm-17.656-123.586a8.829 8.829 0 0 0 -8.828 8.828v26.483h17.655v-26.483a8.827 8.827 0 0 0 -8.827-8.828zm61.793 8.828a8.829 8.829 0 0 0 -8.828 8.828v17.655h17.655v-17.655a8.825 8.825 0 0 0 -8.827-8.828zm-123.586 0a8.829 8.829 0 0 0 -8.828 8.828v17.655h17.655v-17.655a8.827 8.827 0 0 0 -8.827-8.828zm132.414 114.758h-35.31v-26.483c0-9.751 7.904-17.655 17.655-17.655s17.655 7.904 17.655 17.655zm-105.931 0h-35.31v-26.483c0-9.751 7.904-17.655 17.655-17.655s17.655 7.904 17.655 17.655z" fill="#464655"/><path d="m280.275 234.207a4.414 4.414 0 0 0 -1.965-3.672l-17.897-11.93v-3.737l15.215-7.608a4.413 4.413 0 0 0 1.974-5.922 4.41 4.41 0 0 0 -5.922-1.974l-15.681 7.841-15.681-7.84a4.412 4.412 0 0 0 -5.922 1.974 4.413 4.413 0 0 0 1.974 5.922l15.215 7.607v3.737l-17.897 11.932a4.412 4.412 0 0 0 0 7.343l17.897 11.932v37.362h-17.655v6.759a4.411 4.411 0 0 0 4.414 4.414 4.413 4.413 0 0 0 3.901-2.345h9.341v8.828h-9.418a4.41 4.41 0 0 0 -3.823-2.207 4.411 4.411 0 0 0 -4.414 4.414v6.621h17.655v4.414a4.411 4.411 0 0 0 4.414 4.414 4.411 4.411 0 0 0 4.414-4.414v-68.259l17.897-11.932a4.423 4.423 0 0 0 1.964-3.674zm-24.276 7.936-11.905-7.936 11.905-7.935 11.905 7.935z" fill="#ffe15a"/></g></svg>