<svg height="336" viewBox="0 0 512 336" width="512" xmlns="http://www.w3.org/2000/svg"><g fill="none"><path d="m503.172 335.724h-494.344a8.829 8.829 0 0 1 -8.828-8.828v-317.793a8.829 8.829 0 0 1 8.828-8.828h494.345a8.829 8.829 0 0 1 8.828 8.828v317.793a8.83 8.83 0 0 1 -8.829 8.828z" fill="#41479b"/><path d="m0 62.069h512v211.862h-512z" fill="#f5f5f5"/><path d="m301.869 168 22.933-39.721h-45.865l-22.937-39.727-22.936 39.727h-45.865l22.933 39.721-22.933 39.721h45.865l22.936 39.727 22.936-39.727h45.865zm.433-26.73-7.933 13.74-7.933-13.74zm-15.433 26.73-15.433 26.73h-30.873l-15.432-26.73 15.433-26.73h30.873zm-30.869-53.466 7.936 13.746h-15.872zm-46.302 26.736h15.865l-7.933 13.74zm0 53.46 7.933-13.74 7.933 13.74zm46.302 26.736-7.936-13.746h15.872zm38.369-40.476 7.933 13.74h-15.865z" fill="#41479b"/></g></svg>