<svg height="336" viewBox="0 0 512 336" width="512" xmlns="http://www.w3.org/2000/svg"><g fill="none"><path d="m503.172 335.724h-494.344a8.829 8.829 0 0 1 -8.828-8.828v-317.792a8.829 8.829 0 0 1 8.828-8.828h494.345a8.829 8.829 0 0 1 8.828 8.828v317.792a8.83 8.83 0 0 1 -8.829 8.828z" fill="#73af00"/><path d="m375.086.276-375.086 245.745v26.385l415.355-272.13zm136.914 89.703v-26.385l-415.356 272.13h40.269z" fill="#ffe15a"/><path d="m512 63.594v-54.49a8.829 8.829 0 0 0 -8.828-8.828h-87.817l-415.355 272.13v54.49a8.829 8.829 0 0 0 8.828 8.828h87.817z" fill="#464655"/><path d="m156.018 187.9 18.119 14.59 19.67-12.42c2.547-1.608 5.675.951 4.602 3.766l-8.277 21.74 17.89 14.869c2.316 1.926.849 5.69-2.159 5.542l-23.234-1.154-8.613 21.61c-1.116 2.797-5.15 2.567-5.938-.341l-6.082-22.454-23.213-1.514c-3.006-.196-4.032-4.105-1.511-5.752l19.475-12.724-5.734-22.546c-.74-2.918 2.66-5.102 5.005-3.212zm166.989-109.61 18.119 14.59 19.67-12.42c2.547-1.608 5.675.951 4.602 3.766l-8.277 21.74 17.89 14.869c2.316 1.926.849 5.69-2.159 5.542l-23.234-1.154-8.613 21.61c-1.116 2.797-5.15 2.566-5.938-.341l-6.082-22.454-23.213-1.514c-3.006-.196-4.032-4.105-1.511-5.752l19.475-12.724-5.734-22.546c-.741-2.916 2.659-5.101 5.005-3.212z" fill="#f5f5f5"/><path d="m512 326.896v-236.917l-375.087 245.745h366.258a8.828 8.828 0 0 0 8.829-8.828z" fill="#ff4b55"/></g></svg>