<svg height="336" viewBox="0 0 512 336" width="512" xmlns="http://www.w3.org/2000/svg"><g fill="none"><path d="m512.001 30.771h-512.001v-21.668a8.829 8.829 0 0 1 8.828-8.828h494.345a8.829 8.829 0 0 1 8.828 8.828z" fill="#ff4b55"/><path d="m0 30.775h512v30.495h-512z" fill="#f5f5f5"/><path d="m0 61.263h512v30.495h-512z" fill="#ff4b55"/><path d="m0 91.763h512v30.495h-512z" fill="#f5f5f5"/><path d="m512 152.753h-503.172a8.829 8.829 0 0 1 -8.828-8.828v-21.667h512z" fill="#ff4b55"/><path d="m512 183.247h-512v-41.73h8.826l.002 11.236h503.172z" fill="#f5f5f5"/><path d="m0 183.25h512v30.495h-512z" fill="#ff4b55"/><path d="m0 213.738h512v30.495h-512z" fill="#f5f5f5"/><path d="m0 244.237h512v30.495h-512z" fill="#ff4b55"/><path d="m0 274.737h512v30.495h-512z" fill="#f5f5f5"/><path d="m503.172 335.724h-494.344a8.829 8.829 0 0 1 -8.828-8.828v-21.667h512v21.667a8.828 8.828 0 0 1 -8.828 8.828z" fill="#ff4b55"/><path d="m141.241 152.753h-132.413a8.829 8.829 0 0 1 -8.828-8.828v-134.822a8.829 8.829 0 0 1 8.828-8.828h132.414a8.829 8.829 0 0 1 8.828 8.828v134.822a8.83 8.83 0 0 1 -8.829 8.828z" fill="#41479b"/><path d="m72.512 39.737-8.428 25.27-26.638.206c-2.554.02-3.614 3.279-1.559 4.797l21.429 15.825-8.035 25.398c-.77 2.435 2.003 4.45 4.081 2.965l21.674-15.49 21.672 15.49c2.078 1.485 4.851-.53 4.081-2.965l-8.035-25.398 21.429-15.825c2.055-1.517.995-4.778-1.559-4.797l-26.638-.206-8.428-25.27c-.81-2.424-4.237-2.424-5.046 0z" fill="#f5f5f5"/></g></svg>