<svg height="336" viewBox="0 0 512 336" width="512" xmlns="http://www.w3.org/2000/svg"><g fill="none"><path d="m503.172 335.724h-494.344a8.829 8.829 0 0 1 -8.828-8.828v-317.793a8.829 8.829 0 0 1 8.828-8.828h494.345a8.829 8.829 0 0 1 8.828 8.828v317.793a8.83 8.83 0 0 1 -8.829 8.828z" fill="#ff4b55"/><g fill="#ffe15a"><path d="m225.728 136.015-.017.013-128.608-135.752h-88.275c-2.146 0-4.041.86-5.571 2.134l215.864 141.428c1.886-2.874 4.121-5.469 6.607-7.823zm-13.41 36.507c-.156-1.508-.456-2.973-.456-4.522s.3-3.014.456-4.522v.002l-212.318-21.963v52.966l212.318-21.964zm36.821-47.969c2.251-.354 4.511-.691 6.861-.691s4.61.338 6.861.691h-.001l19.623-124.277h-52.966zm43.74 19.285 215.865-141.428c-1.531-1.274-3.425-2.134-5.571-2.134h-88.276l-128.608 135.753-.017-.013c2.486 2.353 4.721 4.948 6.607 7.822zm-6.607 56.147.017-.013 128.608 135.753h88.276c2.146 0 4.041-.86 5.571-2.134l-215.865-141.429c-1.886 2.874-4.121 5.469-6.607 7.823zm13.41-36.504v-.002c.156 1.507.456 2.973.456 4.522s-.3 3.014-.456 4.522v-.002l212.318 21.962v-52.966zm-36.821 47.966c-2.251.353-4.511.691-6.861.691s-4.61-.338-6.861-.691h.001l-19.623 124.277h52.966zm-43.74-19.285-215.865 141.428c1.53 1.274 3.425 2.134 5.571 2.134h88.276l128.608-135.753.017.013c-2.486-2.353-4.721-4.948-6.607-7.822z"/><circle cx="256" cy="168" r="35.31"/></g></g></svg>