<svg height="336" viewBox="0 0 512 336" width="512" xmlns="http://www.w3.org/2000/svg"><g fill="none"><path d="m503.172 335.724h-494.344a8.829 8.829 0 0 1 -8.828-8.828v-317.792a8.829 8.829 0 0 1 8.828-8.828h494.345a8.829 8.829 0 0 1 8.828 8.828v317.792a8.83 8.83 0 0 1 -8.829 8.828z" fill="#4173cd"/><path d="m255.999 296c-70.577 0-128-57.422-128-128s57.422-128 128-128 128 57.422 128 128-57.422 128-128 128zm0-229.517c-55.979 0-101.517 45.539-101.517 101.517s45.539 101.517 101.517 101.517 101.517-45.539 101.517-101.517-45.538-101.517-101.517-101.517z" fill="#f5f5f5"/><g fill="#ffdc00" transform="translate(132 44)"><path d="m123.999 243.172c-65.711 0-119.172-53.461-119.172-119.172s53.461-119.172 119.172-119.172 119.173 53.461 119.173 119.172-53.461 119.172-119.173 119.172zm0-229.517c-60.845 0-110.345 49.499-110.345 110.345s49.499 110.345 110.345 110.345 110.345-49.5 110.345-110.345-49.499-110.345-110.345-110.345z"/><circle cx="9.241" cy="124" r="8.828"/><circle cx="238.758" cy="124" r="8.828"/><circle cx="123.999" cy="9.242" r="8.828"/><circle cx="42.852" cy="42.853" r="8.828"/><circle cx="205.147" cy="42.853" r="8.828"/><circle cx="230.019" cy="80.083" r="8.828"/><circle cx="80.082" cy="17.981" r="8.828"/><circle cx="17.98" cy="80.083" r="8.828"/><circle cx="167.917" cy="17.981" r="8.828"/><circle cx="236.551" cy="101.611" r="8.828"/><circle cx="101.611" cy="11.449" r="8.828"/><circle cx="28.584" cy="60.243" r="8.828"/><circle cx="187.757" cy="28.585" r="8.828"/><circle cx="219.414" cy="60.243" r="8.828"/><circle cx="60.242" cy="28.585" r="8.828"/><circle cx="11.448" cy="101.611" r="8.828"/><circle cx="146.388" cy="11.449" r="8.828"/></g><path d="m370.758 172.414a4.411 4.411 0 0 1 -4.414-4.414c0-60.845-49.499-110.345-110.345-110.345s-110.344 49.501-110.344 110.345a4.411 4.411 0 0 1 -4.414 4.414 4.411 4.411 0 0 1 -4.414-4.414c0-65.711 53.461-119.172 119.172-119.172s119.173 53.461 119.173 119.172a4.411 4.411 0 0 1 -4.414 4.414z" fill="#ffa000"/><path d="m280.527 300.414h-49.054c-10.482 0-18.656-9.079-17.558-19.503l15.602-148.22h52.965l15.602 148.22c1.098 10.423-7.076 19.503-17.557 19.503z" fill="#b4b4b4"/><path d="m282.232 132.69h-52.671a4.547 4.547 0 0 1 -4.52-4.055l-3.29-30.302c-.567-5.221 3.523-9.781 8.776-9.781h50.945c5.252 0 9.343 4.558 8.776 9.781l-3.268 30.098a4.775 4.775 0 0 1 -4.748 4.259z" fill="#aaa"/><path d="m258.044 98.834 16.364 47.079 49.831 1.015c2.051.042 2.899 2.648 1.263 3.889l-39.717 30.111 14.433 47.705c.594 1.964-1.623 3.575-3.308 2.403l-40.91-28.469-40.911 28.468c-1.684 1.172-3.902-.439-3.308-2.403l14.433-47.705-39.717-30.111c-1.635-1.239-.788-3.847 1.263-3.889l49.831-1.015 16.364-47.079c.674-1.938 3.415-1.938 4.089.001z" fill="#f5f5f5"/></g></svg>