<svg height="336" viewBox="0 0 512 336" width="512" xmlns="http://www.w3.org/2000/svg"><g fill="none"><path d="m503.172 335.724h-494.344a8.829 8.829 0 0 1 -8.828-8.828v-317.793a8.829 8.829 0 0 1 8.828-8.828h494.345a8.829 8.829 0 0 1 8.828 8.828v317.793a8.83 8.83 0 0 1 -8.829 8.828z" fill="#ff4b55"/><path d="m441.379 70.897v194.207h-370.758v-194.207z" fill="#73af00"/><path d="m238.378 168.026c0-33.425 22.767-61.417 53.587-69.525 1.026-.27.952-1.754-.1-1.889a66.738 66.738 0 0 0 -8.533-.566c-39.785 0-71.992 32.202-71.992 71.98 0 39.606 32.207 71.896 71.992 71.896 2.898 0 5.745-.209 8.544-.569 1.052-.136 1.125-1.619.1-1.889-30.826-8.121-53.598-36.154-53.598-69.438z" fill="#f5f5f5"/></g></svg>