<svg height="336" viewBox="0 0 512 336" width="512" xmlns="http://www.w3.org/2000/svg"><g fill="none"><path d="m170.667 335.724h-161.839a8.829 8.829 0 0 1 -8.828-8.828v-317.792a8.829 8.829 0 0 1 8.828-8.828h161.839z" fill="#73af00"/><path d="m170.67.276h170.67v335.448h-170.67z" fill="#f5f5f5"/><path d="m503.172 335.724h-161.839v-335.448h161.839a8.829 8.829 0 0 1 8.828 8.828v317.792a8.828 8.828 0 0 1 -8.828 8.828zm-188.213-81.126-27.396-159.812a49.976 49.976 0 0 0 -6.402-17.266l-25.161-41.934-25.161 41.935a49.956 49.956 0 0 0 -6.402 17.266l-27.397 159.813a4.997 4.997 0 0 0 4.925 5.841h44.041v39.973h19.987v-39.974h44.041a4.997 4.997 0 0 0 4.925-5.842z" fill="#73af00"/></g></svg>