<svg height="336" viewBox="0 0 512 336" width="512" xmlns="http://www.w3.org/2000/svg"><g fill="none"><path d="m503.172 335.724h-494.344a8.829 8.829 0 0 1 -8.828-8.828v-317.793a8.829 8.829 0 0 1 8.828-8.828h494.345a8.829 8.829 0 0 1 8.828 8.828v317.793a8.83 8.83 0 0 1 -8.829 8.828z" fill="#41479b"/><path d="m247.172.276h-15.334l-81.77 53.574v-53.574h-44.138v53.574l-81.77-53.574h-15.332a8.828 8.828 0 0 0 -8.828 8.827v7.002l70.155 45.963h-70.155v44.138h70.155l-70.155 45.964v7.002a8.829 8.829 0 0 0 8.828 8.828h15.334l81.77-53.574v53.574h44.138v-53.574l81.769 53.574h15.334a8.829 8.829 0 0 0 8.828-8.828v-7.002l-70.155-45.963h70.154v-44.138h-70.155l70.155-45.963v-7.002a8.828 8.828 0 0 0 -8.828-8.828z" fill="#f5f5f5"/><g fill="#ff4b55"><path d="m256 70.897h-114.759v-70.621h-26.482v70.621h-114.759v26.482h114.759v70.621h26.482v-70.621h114.759z"/><path d="m97.103 62.069-92.896-60.301c-2.472 1.564-4.207 4.193-4.207 7.335v.458l80.889 52.508zm69.18 0 88.374-57.366c-1.536-2.599-4.246-4.427-7.485-4.427h-1.909l-95.194 61.793zm-76.809 44.138-88.205 57.256c1.521 2.662 4.273 4.537 7.559 4.537h1.665l95.196-61.793zm166.386 53.658-82.666-53.658h-16.214l93.874 60.935c2.812-1.305 4.741-4.04 5.006-7.277zm139.614 120.248c-.358 0-.719-.113-1.026-.328l-10.448-7.466-10.449 7.466a1.767 1.767 0 0 1 -2.711-1.974l3.875-12.242-10.327-7.62a1.77 1.77 0 0 1 -.633-1.965 1.773 1.773 0 0 1 1.668-1.224l12.841-.104 4.061-12.181a1.778 1.778 0 0 1 1.677-1.207c.759 0 1.436.491 1.677 1.207l4.061 12.181 12.841.104c.763.009 1.431.5 1.668 1.224a1.77 1.77 0 0 1 -.633 1.965l-10.327 7.62 3.875 12.242a1.778 1.778 0 0 1 -.647 1.965c-.314.224-.68.337-1.043.337z"/></g><path d="m384 243.034 4.461 13.378 14.102.109-11.345 8.377 4.254 13.445-11.472-8.199-11.473 8.201 4.254-13.445-11.345-8.377 14.102-.109zm0-3.531a3.532 3.532 0 0 0 -3.35 2.414l-3.663 10.984-11.578.09a3.53 3.53 0 0 0 -2.071 6.372l9.314 6.878-3.492 11.039a3.532 3.532 0 0 0 5.421 3.937l9.42-6.733 9.42 6.733a3.536 3.536 0 0 0 4.129-.015 3.533 3.533 0 0 0 1.291-3.922l-3.492-11.039 9.314-6.878a3.53 3.53 0 1 0 -2.071-6.372l-11.578-.09-3.663-10.984a3.535 3.535 0 0 0 -3.351-2.414z" fill="#f5f5f5"/><path d="m395.474 137.793c-.362 0-.719-.113-1.026-.328l-10.448-7.473-10.449 7.474a1.794 1.794 0 0 1 -1.026.328c-.362 0-.728-.113-1.038-.337a1.78 1.78 0 0 1 -.647-1.965l3.875-12.242-10.327-7.629a1.774 1.774 0 0 1 -.633-1.965 1.776 1.776 0 0 1 1.668-1.224l12.841-.095 4.061-12.181a1.778 1.778 0 0 1 1.677-1.207c.759 0 1.436.491 1.677 1.207l4.061 12.181 12.841.095c.759.009 1.431.5 1.668 1.224a1.775 1.775 0 0 1 -.633 1.965l-10.327 7.629 3.875 12.242a1.778 1.778 0 0 1 -.647 1.965c-.314.224-.68.336-1.043.336z" fill="#ff4b55"/><path d="m384 100.713 4.461 13.378 14.102.109-11.345 8.377 4.254 13.446-11.472-8.201-11.473 8.201 4.254-13.446-11.345-8.377 14.102-.109zm0-3.531a3.532 3.532 0 0 0 -3.35 2.414l-3.663 10.984-11.578.09a3.53 3.53 0 0 0 -2.071 6.372l9.314 6.878-3.492 11.039a3.532 3.532 0 0 0 5.421 3.937l9.42-6.733 9.42 6.733a3.536 3.536 0 0 0 4.129-.015 3.533 3.533 0 0 0 1.291-3.922l-3.492-11.039 9.314-6.878a3.53 3.53 0 0 0 1.26-3.932 3.53 3.53 0 0 0 -3.331-2.44l-11.578-.09-3.663-10.984a3.534 3.534 0 0 0 -3.351-2.414z" fill="#f5f5f5"/><path d="m457.267 181.931c-.362 0-.719-.113-1.026-.328l-10.447-7.474-10.449 7.474a1.794 1.794 0 0 1 -1.026.328c-.362 0-.728-.113-1.038-.337a1.78 1.78 0 0 1 -.647-1.965l3.875-12.242-10.327-7.629a1.774 1.774 0 0 1 -.633-1.965 1.776 1.776 0 0 1 1.668-1.224l12.841-.095 4.061-12.181a1.778 1.778 0 0 1 1.677-1.207c.759 0 1.436.491 1.677 1.207l4.061 12.181 12.841.095c.759.009 1.431.5 1.668 1.224a1.775 1.775 0 0 1 -.633 1.965l-10.327 7.629 3.875 12.242a1.778 1.778 0 0 1 -.647 1.965 1.802 1.802 0 0 1 -1.044.337z" fill="#ff4b55"/><path d="m445.793 144.851 4.461 13.378 14.102.109-11.345 8.377 4.254 13.446-11.473-8.201-11.473 8.201 4.254-13.445-11.345-8.377 14.102-.109zm0-3.531a3.532 3.532 0 0 0 -3.35 2.414l-3.663 10.984-11.578.09a3.53 3.53 0 0 0 -2.071 6.372l9.314 6.878-3.492 11.039a3.532 3.532 0 0 0 3.367 4.596c.719 0 1.439-.22 2.053-.659l9.42-6.733 9.42 6.733a3.537 3.537 0 0 0 4.13-.015 3.533 3.533 0 0 0 1.291-3.922l-3.492-11.039 9.314-6.878a3.53 3.53 0 0 0 1.26-3.932 3.53 3.53 0 0 0 -3.331-2.44l-11.578-.09-3.663-10.984a3.533 3.533 0 0 0 -3.351-2.414z" fill="#f5f5f5"/><path d="m333.681 199.586c-.362 0-.719-.113-1.026-.328l-10.447-7.474-10.449 7.474a1.794 1.794 0 0 1 -1.026.328c-.362 0-.728-.113-1.038-.337a1.78 1.78 0 0 1 -.647-1.965l3.875-12.242-10.327-7.629a1.774 1.774 0 0 1 -.633-1.965 1.776 1.776 0 0 1 1.668-1.224l12.841-.095 4.061-12.181a1.778 1.778 0 0 1 1.677-1.207c.759 0 1.436.491 1.677 1.207l4.061 12.181 12.841.095c.759.009 1.431.5 1.668 1.224a1.775 1.775 0 0 1 -.633 1.965l-10.327 7.629 3.875 12.242a1.778 1.778 0 0 1 -.647 1.965 1.795 1.795 0 0 1 -1.044.337z" fill="#ff4b55"/><path d="m322.207 162.506 4.461 13.378 14.102.109-11.345 8.377 4.254 13.446-11.473-8.201-11.473 8.201 4.254-13.446-11.345-8.377 14.102-.109zm0-3.531a3.532 3.532 0 0 0 -3.35 2.414l-3.663 10.984-11.578.09a3.53 3.53 0 0 0 -2.071 6.372l9.314 6.878-3.492 11.039a3.532 3.532 0 0 0 3.367 4.596c.719 0 1.439-.22 2.053-.659l9.42-6.733 9.42 6.733a3.536 3.536 0 0 0 4.129-.015 3.533 3.533 0 0 0 1.291-3.922l-3.492-11.039 9.314-6.878a3.53 3.53 0 0 0 1.26-3.932 3.53 3.53 0 0 0 -3.331-2.44l-11.578-.09-3.663-10.984a3.532 3.532 0 0 0 -3.35-2.414z" fill="#f5f5f5"/></g></svg>