<svg height="336" viewBox="0 0 512 336" width="512" xmlns="http://www.w3.org/2000/svg"><g fill="none"><path d="m503.172 335.724h-494.344a8.829 8.829 0 0 1 -8.828-8.828v-317.793a8.829 8.829 0 0 1 8.828-8.828h494.345a8.829 8.829 0 0 1 8.828 8.828v317.793a8.83 8.83 0 0 1 -8.829 8.828z" fill="#ff4b55"/><path d="m185.38.276h-176.552a8.828 8.828 0 0 0 -8.828 8.827v317.793a8.829 8.829 0 0 0 8.828 8.828h176.552z" fill="#73af00"/><circle cx="185.446" cy="168" fill="#ffe15a" r="79.38"/><path d="m211.932 141.517v35.31c0 14.603-11.88 26.483-26.483 26.483s-26.483-11.88-26.483-26.483v-35.31zm8.827-17.655h-70.621a8.829 8.829 0 0 0 -8.828 8.828v44.138c0 24.376 19.762 44.138 44.138 44.138s44.138-19.762 44.138-44.138v-44.138a8.827 8.827 0 0 0 -8.827-8.828z" fill="#ff4b55"/><path d="m211.932 141.517v35.31c0 14.603-11.88 26.483-26.483 26.483s-26.483-11.88-26.483-26.483v-35.31z" fill="#f5f5f5"/><g fill="#ffe15a"><circle cx="150.069" cy="132.69" r="4.414"/><circle cx="220.69" cy="132.69" r="4.414"/><circle cx="150.069" cy="168" r="4.414"/><circle cx="220.69" cy="168" r="4.414"/><circle cx="185.379" cy="132.69" r="4.414"/><circle cx="211.884" cy="200.552" r="4.414"/><circle cx="159.404" cy="200.552" r="4.414"/></g><path d="m191.149 165.762v7.602a5.709 5.709 0 0 1 -5.702 5.702 5.709 5.709 0 0 1 -5.702-5.702v-7.602zm0-18.022v7.602a5.709 5.709 0 0 1 -5.702 5.702 5.709 5.709 0 0 1 -5.702-5.702v-7.602zm0 36.229v7.602a5.709 5.709 0 0 1 -5.702 5.702 5.709 5.709 0 0 1 -5.702-5.702v-7.602zm15.357-18.207v7.602a5.709 5.709 0 0 1 -5.702 5.702 5.709 5.709 0 0 1 -5.702-5.702v-7.602zm-30.712 0v7.602a5.709 5.709 0 0 1 -5.702 5.702 5.709 5.709 0 0 1 -5.702-5.702v-7.602z" fill="#41479b"/></g></svg>