<svg height="336" viewBox="0 0 512 336" width="512" xmlns="http://www.w3.org/2000/svg"><g fill="none"><path d="m512.001 168h-512.001v-158.897a8.829 8.829 0 0 1 8.828-8.828h494.345a8.829 8.829 0 0 1 8.828 8.828zm-512.001 0h512v158.897a8.829 8.829 0 0 1 -8.828 8.828h-494.344a8.829 8.829 0 0 1 -8.828-8.828z" fill="#4173cd"/><path d="m0 168h512v83.862h-512z" fill="#ffe15a"/><path d="m8.828 335.724h494.345a8.829 8.829 0 0 0 8.828-8.828v-75.034h-512.001v75.034a8.828 8.828 0 0 0 8.828 8.828z" fill="#73af00"/><g fill="#ffe15a" transform="translate(361 17)"><path d="m97.211 73.12 36.134-5.982-36.134-5.982 31.094-19.354-35.672 8.301 21.321-29.78-29.78 21.321 8.301-35.672-19.354 31.094-5.983-36.135-5.982 36.134-19.354-31.094 8.301 35.672-29.78-21.321 21.321 29.78-35.672-8.301 31.094 19.354-36.135 5.983 36.134 5.982-31.094 19.354 35.672-8.301-21.321 29.78 29.78-21.321-8.301 35.672 19.354-31.094 5.983 36.135 5.982-36.134 19.354 31.094-8.301-35.672 29.78 21.321-21.321-29.78 35.672 8.301zm-30.073 16.087c-12.189 0-22.069-9.88-22.069-22.069s9.88-22.069 22.069-22.069 22.069 9.88 22.069 22.069-9.88 22.069-22.069 22.069z"/><circle cx="67.138" cy="67.138" r="16.552"/></g></g></svg>