<svg height="336" viewBox="0 0 512 336" width="512" xmlns="http://www.w3.org/2000/svg"><g fill="none"><path d="m503.172 335.724h-494.344a8.829 8.829 0 0 1 -8.828-8.828v-317.792a8.829 8.829 0 0 1 8.828-8.828h494.345a8.829 8.829 0 0 1 8.828 8.828v317.792a8.83 8.83 0 0 1 -8.829 8.828z" fill="#73af00"/><path d="m70.621.276h88.276v335.448h-88.276z" fill="#ff4b55"/><path d="m150.069 38.529-17.655 14.713h-35.311l-17.655-14.713v-14.713l17.655-14.712h35.311l17.655 14.712z" fill="#f5f5f5"/><path d="m150.069 162.115-17.655 14.713h-35.311l-17.655-14.713v-14.712l17.655-14.713h35.311l17.655 14.713zm0-61.793-17.655 14.713h-35.311l-17.655-14.713v-14.712l17.655-14.713h35.311l17.655 14.713zm0 123.586-17.655 14.713h-35.311l-17.655-14.713v-14.712l17.655-14.713h35.311l17.655 14.713z" fill="#73af00"/><path d="m70.621 44.414 17.655 17.655-17.655 17.655zm88.275 35.31-17.655-17.655 17.655-17.655zm-88.275 26.483 17.655 17.655-17.655 17.655zm88.275 35.31-17.655-17.655 17.655-17.655zm-88.275 26.483 17.655 17.655-17.655 17.655zm88.275 35.31-17.655-17.655 17.655-17.655zm-88.275 26.483 17.655 17.655-17.655 17.655zm88.275 35.31-17.655-17.655 17.655-17.655zm-88.275-264.827h17.655l-17.655 17.655zm88.275 17.655-17.655-17.655h17.655zm-48.551 52.966h8.828v44.138h-8.828z" fill="#ffb400"/><path d="m97.103 88.552h35.31v8.828h-35.31z" fill="#ff4b55"/><g fill="#ffb400"><path d="m141.241 78.253-8.827-7.356v44.138l8.827-7.357zm-52.965 29.425 8.827 7.357v-44.137l-8.827 7.355zm26.482-98.574h-17.654l-17.656 14.712v7.357h35.31z"/><path d="m114.758 53.242h17.656l17.655-14.713v-7.356h-35.311z"/></g><path d="m114.758 44.414-17.655-13.189 17.655-13.294 17.656 13.294z" fill="#ff4b55"/><path d="m114.758 44.414 17.656-13.189-.069-.052h-17.587zm0-13.241v-13.242l-17.585 13.242z" fill="#73af00"/><path d="m97.103 141.517h35.31v26.483h-35.31z" fill="#ff4b55"/><path d="m132.414 150.345h8.828v8.828h-8.828z" fill="#ffb400"/><path d="m110.345 150.345h8.828v8.828h-8.828z" fill="#f5f5f5"/><path d="m110.345 203.31h8.828v8.828h-8.828z" fill="#ff4b55"/><path d="m123.586 212.138h8.828v8.828h-8.828zm-26.483 0h8.828v8.828h-8.828z" fill="#ffb400"/><path d="m110.345 220.965h8.828v8.828h-8.828z" fill="#ff4b55"/><path d="m88.276 150.345h8.828v8.828h-8.828z" fill="#ffb400"/><path d="m150.069 285.701-17.655 14.713h-35.311l-17.655-14.713v-14.712l17.655-14.713h35.311l17.655 14.713z" fill="#f5f5f5"/><g fill="#ffb400"><path d="m114.758 256.276h-17.654l-17.656 14.712v7.357h35.31z"/><path d="m114.758 300.414h17.656l17.655-14.713v-7.356h-35.311z"/></g><path d="m132.414 282.758-17.656 8.828-17.655-8.828v-8.827l17.655-8.828 17.656 8.828z" fill="#ff4b55"/><path d="m280.01 48.343c-.94-.462-1.791.761-1.028 1.48 9.99 9.427 16.303 22.666 16.303 37.433 0 29.007-23.316 52.279-51.986 52.279a50.825 50.825 0 0 1 -15.197-2.328c-.996-.311-1.641 1.025-.783 1.621 8.382 5.827 18.485 9.31 29.514 9.31 29.049 0 52.787-23.275 52.787-52.703-.001-20.682-12.14-38.503-29.61-47.092zm-71.837 34.06-2.159 6.109 5.08 4.021c.658.521.275 1.579-.564 1.557l-6.477-.167-2.254 6.074c-.292.787-1.417.749-1.655-.055l-1.843-6.211-6.474-.267c-.839-.034-1.15-1.116-.459-1.591l5.338-3.672-1.747-6.24c-.226-.808.706-1.439 1.372-.928l5.142 3.942 5.395-3.59c.696-.465 1.584.227 1.305 1.018zm26.234 13.25-2.159 6.109 5.08 4.021c.658.521.275 1.579-.564 1.557l-6.477-.167-2.254 6.074c-.292.787-1.417.749-1.655-.055l-1.843-6.211-6.474-.267c-.839-.034-1.15-1.116-.459-1.591l5.338-3.672-1.747-6.24c-.226-.808.706-1.439 1.372-.928l5.142 3.942 5.395-3.59c.697-.464 1.584.228 1.305 1.018zm-.265-27.295-2.159 6.109 5.08 4.021c.658.521.275 1.579-.564 1.557l-6.477-.167-2.254 6.074c-.292.787-1.417.749-1.655-.055l-1.843-6.211-6.474-.267c-.839-.034-1.15-1.116-.459-1.591l5.338-3.672-1.747-6.24c-.226-.808.706-1.439 1.372-.928l5.142 3.942 5.395-3.59c.697-.464 1.585.228 1.305 1.018zm.894-26.345-2.159 6.109 5.08 4.021c.658.521.275 1.579-.564 1.557l-6.477-.167-2.254 6.074c-.292.787-1.417.749-1.655-.055l-1.843-6.211-6.474-.267c-.839-.034-1.15-1.116-.459-1.591l5.338-3.672-1.747-6.24c-.226-.808.706-1.439 1.372-.928l5.142 3.942 5.395-3.59c.696-.465 1.584.227 1.305 1.018zm25.705 13.25-2.159 6.109 5.08 4.021c.658.521.275 1.579-.564 1.557l-6.477-.167-2.254 6.074c-.292.787-1.417.749-1.655-.055l-1.843-6.211-6.474-.267c-.839-.034-1.15-1.116-.459-1.591l5.338-3.672-1.747-6.24c-.226-.808.706-1.439 1.372-.928l5.142 3.942 5.395-3.59c.696-.465 1.584.227 1.305 1.018z" fill="#f5f5f5"/></g></svg>