<svg height="336" viewBox="0 0 512 336" width="512" xmlns="http://www.w3.org/2000/svg"><g fill="none"><path d="m503.172 335.724h-494.344a8.829 8.829 0 0 1 -8.828-8.828v-317.793a8.829 8.829 0 0 1 8.828-8.828h494.345a8.829 8.829 0 0 1 8.828 8.828v317.793a8.83 8.83 0 0 1 -8.829 8.828z" fill="#ff4b55"/><path d="m8.828.276c-2.387 0-4.535.967-6.124 2.506l359.228 332.942h26.483l-361.932-335.448zm141.241 0h-26.483l361.931 335.448h17.655c2.387 0 4.535-.967 6.124-2.506z" fill="#f5f5f5"/><path d="m26.483.276 361.931 335.448h97.103l-361.931-335.448z" fill="#464655"/></g></svg>